# xmcd
#
# Track frame offsets:
#	150
#	20508
#	36821
#	57161
#	80999
#	94100
#	110316
#	126458
#	147148
#	164402
#	184372
#	201130
#
# Disc length: 2962 seconds
#
# Revision: 0
# Processed by: cddbd v1.4PL0 Copyright (c) Steve Scherf et al.
# Submitted via: dBpowerAMP V4.0
#
DISCID=ab0b900c
DTITLE=MARC DALMASSO - Country sur le volet
DYEAR=2002
DGENRE=Country
TTITLE0=Honey Hornpipe
TTITLE1=Amazing Grace
TTITLE2=Concert March
TTITLE3=Eight of January (medley)
TTITLE4=Le Temps Gris
TTITLE5=Lucile' Creek
TTITLE6=Voyage en Amérique
TTITLE7=Flowers of Edimbourg
TTITLE8=Chapeau L'Faire
TTITLE9=Bonaparte's Retreat
TTITLE10=Soldier's Joy
TTITLE11=Righi's Minor
EXTD=MARC DALMASSO/Country sur le volet
EXTT0=
EXTT1=
EXTT2=
EXTT3=
EXTT4=
EXTT5=
EXTT6=
EXTT7=
EXTT8=
EXTT9=
EXTT10=
EXTT11=
PLAYORDER=
